<svg id="Layer_1" data-name="Layer 1" xmlns="http://www.w3.org/2000/svg" viewBox="0 0 1771 298"><defs><style>.cls-1{fill:#3d3935;}.cls-2{fill:#418fde;}</style></defs><path class="cls-1" d="M1385.32,256.48H1188.43a103.79,103.79,0,0,1-103.87-103.87V146A103.79,103.79,0,0,1,1188.43,42.13h153.92a64.21,64.21,0,1,1,0,128.42H1191.74a21.25,21.25,0,1,1,0-42.49h150.61a21.72,21.72,0,1,0,0-43.44H1188.43A61.46,61.46,0,0,0,1127.05,146v6.61A61.45,61.45,0,0,0,1188.43,214h196.89a21.25,21.25,0,0,1,0,42.49Z"/><path class="cls-1" d="M1750.09,256.72a21.24,21.24,0,0,1-21.25-21.25V146.24a61.44,61.44,0,0,0-61.38-61.38h-114a61.44,61.44,0,0,0-61.38,61.38v89.23a21.25,21.25,0,1,1-42.5,0V146.24A103.84,103.84,0,0,1,1553.44,42.36h114a103.81,103.81,0,0,1,103.87,103.88v89.23A21.24,21.24,0,0,1,1750.09,256.72Z"/><path class="cls-1" d="M677,256.48H483.7A107.19,107.19,0,0,1,442,50.56a106.38,106.38,0,0,1,41.72-8.43H677a21.25,21.25,0,1,1,0,42.49H483.7a64.69,64.69,0,0,0,0,129.37H677a21.25,21.25,0,1,1,0,42.49Z"/><path class="cls-2" d="M902.37,256.72A67.75,67.75,0,0,1,839,212.84L800,109.32a38,38,0,0,0-35.35-24.46h-2.12a21.25,21.25,0,0,1,0-42.5h2.12a80.3,80.3,0,0,1,75.12,52l39,103.51a25.25,25.25,0,0,0,47.29-.06L964.61,94.54a80.25,80.25,0,0,1,75.19-52.18h2a21.25,21.25,0,0,1,0,42.5h-2a37.92,37.92,0,0,0-35.38,24.55L965.83,212.68a67.75,67.75,0,0,1-63.46,44Z"/><path class="cls-2" d="M57.87,29.11A147.08,147.08,0,0,0,36.54,48.86,9.33,9.33,0,0,0,38.81,63l233.7,136.87a9.08,9.08,0,0,0,13.24-5.1,149.2,149.2,0,0,0,6.19-28.61,9.34,9.34,0,0,0-4.5-9.17L68,28.48A9.09,9.09,0,0,0,57.87,29.11Z"/><path class="cls-2" d="M266.91,99c7.66,4.49,16.56-3.6,12.93-11.77a147.83,147.83,0,0,0-60.46-67.7,144.69,144.69,0,0,0-88-19.26c-8.8.89-11.25,12.76-3.6,17.24Z"/><path class="cls-2" d="M24.76,198.47c-7.65-4.48-16.56,3.6-12.92,11.78A147.75,147.75,0,0,0,72.3,277.94a144.74,144.74,0,0,0,88,19.27c8.79-.9,11.25-12.76,3.59-17.25Z"/><path class="cls-2" d="M233.8,268.35a146.59,146.59,0,0,0,21.34-19.75,9.34,9.34,0,0,0-2.27-14.18L19.16,97.55a9.09,9.09,0,0,0-13.24,5.1A150.06,150.06,0,0,0-.27,131.27a9.35,9.35,0,0,0,4.5,9.17L223.72,269A9.07,9.07,0,0,0,233.8,268.35Z"/></svg>