<?xml version="1.0" encoding="UTF-8" standalone="no"?>
<!DOCTYPE svg PUBLIC "-//W3C//DTD SVG 1.1//EN" "http://www.w3.org/Graphics/SVG/1.1/DTD/svg11.dtd">
<svg xmlns="http://www.w3.org/2000/svg" version="1.1" viewBox="0.00 0.00 500.00 500.00">
<g stroke-width="2.00" fill="none" stroke-linecap="butt">
<path stroke="#848381" vector-effect="non-scaling-stroke" d="
  M 243.62 171.48
  A 0.20 0.20 0.0 0 1 243.27 171.60
  C 238.33 165.67 232.68 160.92 228.57 154.46
  C 223.02 145.73 222.36 136.59 222.73 127.24
  C 222.88 123.50 218.95 120.69 215.42 121.32
  C 211.96 121.94 210.79 125.50 210.68 128.74
  Q 210.39 136.82 211.12 143.69
  C 212.68 158.37 221.92 167.07 233.15 178.07
  Q 243.30 188.00 243.72 202.55
  Q 244.00 212.15 243.86 231.28
  Q 243.85 233.03 244.30 234.84
  A 0.51 0.50 18.2 0 1 243.42 235.28
  C 242.67 234.39 242.37 232.12 241.44 230.62
  Q 235.40 220.94 226.10 213.91
  C 218.77 208.37 210.64 203.37 203.55 195.46
  Q 198.19 189.49 195.34 178.97
  Q 194.62 176.32 194.46 169.94
  C 194.37 166.74 193.46 162.73 190.32 162.14
  Q 185.50 161.24 183.01 164.70
  A 2.73 2.66 -25.8 0 0 182.53 166.02
  Q 180.53 193.21 201.24 210.22
  Q 203.91 212.42 216.23 222.00
  C 229.56 232.37 238.09 246.53 244.12 262.05
  Q 246.43 268.00 252.31 265.89
  C 255.55 264.72 257.71 257.44 259.35 253.33
  Q 264.75 239.86 274.01 230.31
  C 282.03 222.03 296.28 213.95 304.36 205.12
  Q 318.81 189.30 317.54 167.93
  C 317.44 166.18 317.73 165.15 316.52 163.66
  Q 314.06 160.63 310.50 161.68
  C 303.74 163.66 306.04 173.97 304.80 179.12
  C 302.58 188.28 296.70 196.48 289.44 202.19
  Q 280.08 209.54 272.45 215.46
  C 265.37 220.97 259.91 226.79 256.59 234.91
  A 0.40 0.39 -34.3 0 1 255.83 234.77
  Q 255.83 232.59 255.76 226.29
  Q 255.71 222.02 256.59 217.81
  C 258.37 209.25 264.97 202.28 271.88 195.86
  C 282.44 186.05 288.13 173.87 288.59 159.26
  Q 288.87 150.44 288.84 138.73
  Q 288.83 134.06 285.81 132.30
  C 283.35 130.86 279.65 131.07 278.04 133.26
  Q 276.48 135.39 276.20 139.25
  C 275.40 150.21 278.70 169.00 269.81 180.13
  Q 266.06 184.82 256.80 195.09
  A 0.54 0.54 0.0 0 1 255.86 194.73
  Q 255.84 187.26 255.61 103.75
  C 255.61 101.10 254.83 96.97 251.70 96.28
  Q 247.46 95.36 245.14 98.19
  Q 243.71 99.92 243.78 104.97
  Q 243.94 116.44 243.62 171.48"
/>
<path stroke="#848381" vector-effect="non-scaling-stroke" d="
  M 292.88 286.55
  Q 298.60 287.31 300.80 286.04
  Q 304.46 283.92 308.74 279.36
  A 0.49 0.48 -68.3 0 0 308.39 278.54
  L 299.87 278.54
  A 1.95 1.94 -75.1 0 0 298.18 279.53
  Q 296.37 282.71 292.67 285.83
  A 0.41 0.41 0.0 0 0 292.88 286.55"
/>
<path stroke="#848381" vector-effect="non-scaling-stroke" d="
  M 264.82 322.40
  C 262.19 331.72 251.10 333.88 242.95 331.17
  C 234.82 328.46 232.71 318.06 234.27 310.75
  C 235.07 307.02 237.46 302.87 241.03 301.26
  Q 242.66 300.52 243.71 299.81
  A 2.83 2.81 -62.1 0 1 245.25 299.33
  Q 251.69 299.23 252.84 299.41
  Q 257.41 300.11 260.92 302.91
  A 1.41 1.39 -78.7 0 1 261.41 303.66
  Q 261.97 305.83 264.07 307.02
  A 0.80 0.80 0.0 0 0 265.03 306.89
  Q 267.19 304.78 270.84 303.97
  A 0.93 0.93 0.0 0 0 271.44 302.59
  Q 265.66 292.61 254.42 290.18
  C 246.61 288.49 240.40 290.39 234.31 294.89
  C 223.68 302.74 220.43 318.98 227.89 330.35
  Q 232.72 337.70 240.91 339.99
  Q 259.19 345.09 271.02 330.81
  A 5.36 5.24 -14.9 0 0 271.87 329.38
  Q 273.49 325.28 273.55 324.23
  Q 273.76 320.23 273.67 313.83
  A 0.63 0.63 0.0 0 0 273.04 313.21
  L 249.29 313.21
  A 0.28 0.28 0.0 0 0 249.01 313.49
  L 249.01 321.12
  A 0.37 0.37 0.0 0 0 249.38 321.49
  L 264.14 321.49
  A 0.71 0.71 0.0 0 1 264.82 322.40"
/>
<path stroke="#848381" vector-effect="non-scaling-stroke" d="
  M 187.81 291.01
  L 177.85 291.01
  A 0.39 0.38 -80.3 0 0 177.49 291.27
  Q 171.06 309.61 169.10 315.58
  Q 168.86 316.33 168.81 317.85
  A 2.43 2.34 -36.8 0 1 168.71 318.46
  L 165.77 327.81
  A 0.83 0.82 -38.6 0 1 164.16 327.63
  C 163.99 325.33 163.56 323.10 162.68 320.85
  Q 156.79 305.81 151.46 291.25
  A 0.37 0.36 79.5 0 0 151.12 291.01
  L 141.49 291.01
  A 0.18 0.17 -9.3 0 0 141.32 291.24
  L 159.27 339.68
  A 0.87 0.87 0.0 0 0 160.09 340.25
  L 169.53 340.25
  A 0.84 0.84 0.0 0 0 170.32 339.69
  L 187.92 291.17
  A 0.12 0.12 0.0 0 0 187.81 291.01"
/>
<path stroke="#848381" vector-effect="non-scaling-stroke" d="
  M 200.38 291.03
  A 0.31 0.31 0.0 0 0 200.07 291.34
  L 200.07 339.37
  A 0.68 0.67 85.6 0 0 200.84 340.04
  Q 201.55 339.93 202.09 340.41
  Q 202.73 340.97 204.04 340.89
  Q 206.28 340.75 208.65 340.42
  A 1.37 1.37 0.0 0 0 209.84 339.06
  L 209.84 291.44
  A 0.41 0.41 0.0 0 0 209.43 291.03
  L 200.38 291.03"
/>
<path stroke="#848381" vector-effect="non-scaling-stroke" d="
  M 298.57 291.05
  L 289.69 291.03
  A 0.40 0.40 0.0 0 0 289.29 291.43
  L 289.21 339.06
  A 4.32 1.69 0.1 0 0 293.53 340.76
  L 294.57 340.76
  A 4.32 1.69 0.1 0 0 298.89 339.08
  L 298.97 291.45
  A 0.40 0.40 0.0 0 0 298.57 291.05"
/>
<path stroke="#848381" vector-effect="non-scaling-stroke" d="
  M 312.58 340.29
  L 320.49 340.29
  A 0.90 0.90 0.0 0 0 321.27 339.84
  Q 324.17 334.85 325.40 329.24
  A 0.63 0.62 -83.6 0 1 326.01 328.75
  L 345.35 328.75
  A 0.98 0.97 79.5 0 1 346.26 329.38
  L 350.13 339.48
  A 1.51 1.51 0.0 0 0 351.54 340.45
  L 359.16 340.45
  A 0.74 0.74 0.0 0 0 359.85 339.45
  L 341.47 291.50
  A 0.79 0.78 -10.1 0 0 340.73 290.99
  L 330.02 290.99
  A 0.74 0.74 0.0 0 0 329.33 291.47
  L 311.95 339.40
  A 0.67 0.66 9.8 0 0 312.58 340.29"
/>
<path stroke="#848381" vector-effect="non-scaling-stroke" d="
  M 159.68 373.47
  A 0.52 0.52 0.0 0 0 159.16 372.95
  L 148.54 372.95
  A 0.52 0.52 0.0 0 1 148.02 372.43
  L 148.02 364.69
  A 0.52 0.52 0.0 0 1 148.54 364.17
  L 161.33 364.17
  A 0.52 0.52 0.0 0 0 161.85 363.65
  L 161.85 359.50
  A 0.52 0.52 0.0 0 0 161.33 358.98
  L 142.54 358.98
  A 0.52 0.52 0.0 0 0 142.02 359.50
  L 142.02 390.49
  A 0.52 0.52 0.0 0 0 142.54 391.01
  L 147.48 391.01
  A 0.52 0.52 0.0 0 0 148.00 390.49
  L 148.00 379.02
  A 0.52 0.52 0.0 0 1 148.52 378.50
  L 159.16 378.50
  A 0.52 0.52 0.0 0 0 159.68 377.98
  L 159.68 373.47"
/>
<path stroke="#848381" vector-effect="non-scaling-stroke" d="
  M 190.04 391.75
  C 194.24 391.73 198.31 390.76 200.95 387.45
  C 202.15 385.95 203.32 381.66 203.35 380.02
  Q 203.49 373.38 203.18 359.30
  A 0.37 0.36 -0.0 0 0 202.81 358.94
  L 197.44 358.94
  A 0.35 0.35 0.0 0 0 197.09 359.29
  Q 197.01 372.75 197.00 379.27
  C 196.99 384.19 194.45 385.91 190.01 385.93
  C 185.58 385.95 183.01 384.25 182.96 379.33
  Q 182.90 372.81 182.70 359.35
  A 0.35 0.35 0.0 0 0 182.34 359.01
  L 176.97 359.05
  A 0.37 0.36 -0.5 0 0 176.61 359.42
  Q 176.42 373.50 176.62 380.14
  C 176.67 381.78 177.87 386.06 179.08 387.55
  C 181.75 390.84 185.84 391.77 190.04 391.75"
/>
<path stroke="#848381" vector-effect="non-scaling-stroke" d="
  M 230.04 391.01
  Q 231.97 391.00 232.43 390.95
  A 0.61 0.60 -3.6 0 0 232.97 390.35
  L 232.97 365.00
  A 0.61 0.61 0.0 0 1 233.58 364.39
  L 242.53 364.39
  A 0.47 0.47 0.0 0 0 243.00 363.92
  L 243.00 359.39
  A 0.42 0.41 89.4 0 0 242.58 358.97
  Q 236.47 359.03 229.87 359.05
  Q 223.26 359.10 217.16 359.11
  A 0.42 0.41 90.0 0 0 216.74 359.53
  L 216.79 364.06
  A 0.47 0.47 0.0 0 0 217.26 364.53
  L 226.21 364.43
  A 0.61 0.61 0.0 0 1 226.83 365.03
  L 227.10 390.38
  A 0.61 0.60 3.0 0 0 227.65 390.97
  Q 228.11 391.02 230.04 391.01"
/>
<path stroke="#848381" vector-effect="non-scaling-stroke" d="
  M 270.12 391.76
  C 274.32 391.74 278.39 390.77 281.03 387.47
  C 282.22 385.97 283.39 381.68 283.42 380.04
  Q 283.56 373.41 283.24 359.35
  A 0.37 0.36 -0.0 0 0 282.87 358.99
  L 277.51 358.99
  A 0.35 0.35 0.0 0 0 277.16 359.34
  Q 277.08 372.78 277.08 379.30
  C 277.07 384.21 274.53 385.93 270.10 385.95
  C 265.67 385.97 263.11 384.28 263.06 379.36
  Q 262.99 372.85 262.78 359.41
  A 0.35 0.35 0.0 0 0 262.43 359.06
  L 257.07 359.11
  A 0.37 0.36 -0.5 0 0 256.70 359.47
  Q 256.52 373.54 256.72 380.17
  C 256.77 381.81 257.97 386.08 259.18 387.57
  C 261.85 390.85 265.93 391.78 270.12 391.76"
/>
<path stroke="#848381" vector-effect="non-scaling-stroke" d="
  M 315.69 378.20
  Q 320.29 375.82 321.14 372.13
  C 321.99 368.45 321.49 362.37 317.18 361.11
  Q 311.61 359.48 311.34 359.37
  A 5.24 5.08 -33.4 0 0 309.44 359.01
  L 298.96 358.99
  A 0.62 0.62 0.0 0 0 298.34 359.61
  L 298.34 390.70
  A 0.29 0.29 0.0 0 0 298.63 390.99
  L 304.37 390.99
  A 0.31 0.31 0.0 0 0 304.68 390.68
  L 304.68 379.71
  A 0.60 0.60 0.0 0 1 305.33 379.11
  C 307.91 379.28 309.61 379.11 310.51 381.56
  Q 312.19 386.14 314.67 389.61
  A 4.11 4.10 72.1 0 0 318.00 391.32
  L 321.83 391.32
  A 0.85 0.85 0.0 0 0 322.55 390.01
  L 315.48 378.99
  A 0.55 0.55 0.0 0 1 315.69 378.20"
/>
<path stroke="#848381" vector-effect="non-scaling-stroke" d="
  M 345.29 359.02
  A 0.49 0.49 0.0 0 0 344.83 359.34
  L 333.59 390.33
  A 0.49 0.49 0.0 0 0 334.05 390.99
  L 339.38 390.99
  A 0.49 0.49 0.0 0 0 339.84 390.67
  L 342.31 383.83
  A 0.49 0.49 0.0 0 1 342.77 383.51
  L 355.01 383.51
  A 0.49 0.49 0.0 0 1 355.47 383.82
  L 358.09 390.66
  A 0.49 0.49 0.0 0 0 358.55 390.97
  L 363.91 390.97
  A 0.49 0.49 0.0 0 0 364.37 390.30
  L 352.50 359.33
  A 0.49 0.49 0.0 0 0 352.04 359.02
  L 345.29 359.02"
/>
<path stroke="#848381" vector-effect="non-scaling-stroke" d="
  M 328.88 319.33
  A 0.56 0.56 0.0 0 0 329.41 320.07
  L 342.88 319.89
  A 0.56 0.56 0.0 0 0 343.40 319.13
  L 336.40 300.36
  A 0.56 0.56 0.0 0 0 335.35 300.38
  L 328.88 319.33"
/>
<path stroke="#848381" vector-effect="non-scaling-stroke" d="
  M 304.87 364.80
  L 304.85 373.62
  A 0.34 0.34 0.0 0 0 305.19 373.96
  L 310.91 373.97
  A 4.74 4.53 0.1 0 0 315.66 369.45
  L 315.66 369.01
  A 4.74 4.53 0.1 0 0 310.93 364.47
  L 305.21 364.46
  A 0.34 0.34 0.0 0 0 304.87 364.80"
/>
<path stroke="#848381" vector-effect="non-scaling-stroke" d="
  M 344.26 377.10
  A 0.64 0.64 0.0 0 0 344.86 377.96
  L 353.21 378.06
  A 0.64 0.64 0.0 0 0 353.82 377.22
  L 349.79 365.48
  A 0.64 0.64 0.0 0 0 348.58 365.46
  L 344.26 377.10"
/>
</g>
<path fill="#181818" d="
  M 500.00 0.00
  L 500.00 500.00
  L 0.00 500.00
  L 0.00 0.00
  L 500.00 0.00
  Z
  M 243.62 171.48
  A 0.20 0.20 0.0 0 1 243.27 171.60
  C 238.33 165.67 232.68 160.92 228.57 154.46
  C 223.02 145.73 222.36 136.59 222.73 127.24
  C 222.88 123.50 218.95 120.69 215.42 121.32
  C 211.96 121.94 210.79 125.50 210.68 128.74
  Q 210.39 136.82 211.12 143.69
  C 212.68 158.37 221.92 167.07 233.15 178.07
  Q 243.30 188.00 243.72 202.55
  Q 244.00 212.15 243.86 231.28
  Q 243.85 233.03 244.30 234.84
  A 0.51 0.50 18.2 0 1 243.42 235.28
  C 242.67 234.39 242.37 232.12 241.44 230.62
  Q 235.40 220.94 226.10 213.91
  C 218.77 208.37 210.64 203.37 203.55 195.46
  Q 198.19 189.49 195.34 178.97
  Q 194.62 176.32 194.46 169.94
  C 194.37 166.74 193.46 162.73 190.32 162.14
  Q 185.50 161.24 183.01 164.70
  A 2.73 2.66 -25.8 0 0 182.53 166.02
  Q 180.53 193.21 201.24 210.22
  Q 203.91 212.42 216.23 222.00
  C 229.56 232.37 238.09 246.53 244.12 262.05
  Q 246.43 268.00 252.31 265.89
  C 255.55 264.72 257.71 257.44 259.35 253.33
  Q 264.75 239.86 274.01 230.31
  C 282.03 222.03 296.28 213.95 304.36 205.12
  Q 318.81 189.30 317.54 167.93
  C 317.44 166.18 317.73 165.15 316.52 163.66
  Q 314.06 160.63 310.50 161.68
  C 303.74 163.66 306.04 173.97 304.80 179.12
  C 302.58 188.28 296.70 196.48 289.44 202.19
  Q 280.08 209.54 272.45 215.46
  C 265.37 220.97 259.91 226.79 256.59 234.91
  A 0.40 0.39 -34.3 0 1 255.83 234.77
  Q 255.83 232.59 255.76 226.29
  Q 255.71 222.02 256.59 217.81
  C 258.37 209.25 264.97 202.28 271.88 195.86
  C 282.44 186.05 288.13 173.87 288.59 159.26
  Q 288.87 150.44 288.84 138.73
  Q 288.83 134.06 285.81 132.30
  C 283.35 130.86 279.65 131.07 278.04 133.26
  Q 276.48 135.39 276.20 139.25
  C 275.40 150.21 278.70 169.00 269.81 180.13
  Q 266.06 184.82 256.80 195.09
  A 0.54 0.54 0.0 0 1 255.86 194.73
  Q 255.84 187.26 255.61 103.75
  C 255.61 101.10 254.83 96.97 251.70 96.28
  Q 247.46 95.36 245.14 98.19
  Q 243.71 99.92 243.78 104.97
  Q 243.94 116.44 243.62 171.48
  Z
  M 292.88 286.55
  Q 298.60 287.31 300.80 286.04
  Q 304.46 283.92 308.74 279.36
  A 0.49 0.48 -68.3 0 0 308.39 278.54
  L 299.87 278.54
  A 1.95 1.94 -75.1 0 0 298.18 279.53
  Q 296.37 282.71 292.67 285.83
  A 0.41 0.41 0.0 0 0 292.88 286.55
  Z
  M 264.82 322.40
  C 262.19 331.72 251.10 333.88 242.95 331.17
  C 234.82 328.46 232.71 318.06 234.27 310.75
  C 235.07 307.02 237.46 302.87 241.03 301.26
  Q 242.66 300.52 243.71 299.81
  A 2.83 2.81 -62.1 0 1 245.25 299.33
  Q 251.69 299.23 252.84 299.41
  Q 257.41 300.11 260.92 302.91
  A 1.41 1.39 -78.7 0 1 261.41 303.66
  Q 261.97 305.83 264.07 307.02
  A 0.80 0.80 0.0 0 0 265.03 306.89
  Q 267.19 304.78 270.84 303.97
  A 0.93 0.93 0.0 0 0 271.44 302.59
  Q 265.66 292.61 254.42 290.18
  C 246.61 288.49 240.40 290.39 234.31 294.89
  C 223.68 302.74 220.43 318.98 227.89 330.35
  Q 232.72 337.70 240.91 339.99
  Q 259.19 345.09 271.02 330.81
  A 5.36 5.24 -14.9 0 0 271.87 329.38
  Q 273.49 325.28 273.55 324.23
  Q 273.76 320.23 273.67 313.83
  A 0.63 0.63 0.0 0 0 273.04 313.21
  L 249.29 313.21
  A 0.28 0.28 0.0 0 0 249.01 313.49
  L 249.01 321.12
  A 0.37 0.37 0.0 0 0 249.38 321.49
  L 264.14 321.49
  A 0.71 0.71 0.0 0 1 264.82 322.40
  Z
  M 187.81 291.01
  L 177.85 291.01
  A 0.39 0.38 -80.3 0 0 177.49 291.27
  Q 171.06 309.61 169.10 315.58
  Q 168.86 316.33 168.81 317.85
  A 2.43 2.34 -36.8 0 1 168.71 318.46
  L 165.77 327.81
  A 0.83 0.82 -38.6 0 1 164.16 327.63
  C 163.99 325.33 163.56 323.10 162.68 320.85
  Q 156.79 305.81 151.46 291.25
  A 0.37 0.36 79.5 0 0 151.12 291.01
  L 141.49 291.01
  A 0.18 0.17 -9.3 0 0 141.32 291.24
  L 159.27 339.68
  A 0.87 0.87 0.0 0 0 160.09 340.25
  L 169.53 340.25
  A 0.84 0.84 0.0 0 0 170.32 339.69
  L 187.92 291.17
  A 0.12 0.12 0.0 0 0 187.81 291.01
  Z
  M 200.38 291.03
  A 0.31 0.31 0.0 0 0 200.07 291.34
  L 200.07 339.37
  A 0.68 0.67 85.6 0 0 200.84 340.04
  Q 201.55 339.93 202.09 340.41
  Q 202.73 340.97 204.04 340.89
  Q 206.28 340.75 208.65 340.42
  A 1.37 1.37 0.0 0 0 209.84 339.06
  L 209.84 291.44
  A 0.41 0.41 0.0 0 0 209.43 291.03
  L 200.38 291.03
  Z
  M 298.57 291.05
  L 289.69 291.03
  A 0.40 0.40 0.0 0 0 289.29 291.43
  L 289.21 339.06
  A 4.32 1.69 0.1 0 0 293.53 340.76
  L 294.57 340.76
  A 4.32 1.69 0.1 0 0 298.89 339.08
  L 298.97 291.45
  A 0.40 0.40 0.0 0 0 298.57 291.05
  Z
  M 312.58 340.29
  L 320.49 340.29
  A 0.90 0.90 0.0 0 0 321.27 339.84
  Q 324.17 334.85 325.40 329.24
  A 0.63 0.62 -83.6 0 1 326.01 328.75
  L 345.35 328.75
  A 0.98 0.97 79.5 0 1 346.26 329.38
  L 350.13 339.48
  A 1.51 1.51 0.0 0 0 351.54 340.45
  L 359.16 340.45
  A 0.74 0.74 0.0 0 0 359.85 339.45
  L 341.47 291.50
  A 0.79 0.78 -10.1 0 0 340.73 290.99
  L 330.02 290.99
  A 0.74 0.74 0.0 0 0 329.33 291.47
  L 311.95 339.40
  A 0.67 0.66 9.8 0 0 312.58 340.29
  Z
  M 159.68 373.47
  A 0.52 0.52 0.0 0 0 159.16 372.95
  L 148.54 372.95
  A 0.52 0.52 0.0 0 1 148.02 372.43
  L 148.02 364.69
  A 0.52 0.52 0.0 0 1 148.54 364.17
  L 161.33 364.17
  A 0.52 0.52 0.0 0 0 161.85 363.65
  L 161.85 359.50
  A 0.52 0.52 0.0 0 0 161.33 358.98
  L 142.54 358.98
  A 0.52 0.52 0.0 0 0 142.02 359.50
  L 142.02 390.49
  A 0.52 0.52 0.0 0 0 142.54 391.01
  L 147.48 391.01
  A 0.52 0.52 0.0 0 0 148.00 390.49
  L 148.00 379.02
  A 0.52 0.52 0.0 0 1 148.52 378.50
  L 159.16 378.50
  A 0.52 0.52 0.0 0 0 159.68 377.98
  L 159.68 373.47
  Z
  M 190.04 391.75
  C 194.24 391.73 198.31 390.76 200.95 387.45
  C 202.15 385.95 203.32 381.66 203.35 380.02
  Q 203.49 373.38 203.18 359.30
  A 0.37 0.36 -0.0 0 0 202.81 358.94
  L 197.44 358.94
  A 0.35 0.35 0.0 0 0 197.09 359.29
  Q 197.01 372.75 197.00 379.27
  C 196.99 384.19 194.45 385.91 190.01 385.93
  C 185.58 385.95 183.01 384.25 182.96 379.33
  Q 182.90 372.81 182.70 359.35
  A 0.35 0.35 0.0 0 0 182.34 359.01
  L 176.97 359.05
  A 0.37 0.36 -0.5 0 0 176.61 359.42
  Q 176.42 373.50 176.62 380.14
  C 176.67 381.78 177.87 386.06 179.08 387.55
  C 181.75 390.84 185.84 391.77 190.04 391.75
  Z
  M 230.04 391.01
  Q 231.97 391.00 232.43 390.95
  A 0.61 0.60 -3.6 0 0 232.97 390.35
  L 232.97 365.00
  A 0.61 0.61 0.0 0 1 233.58 364.39
  L 242.53 364.39
  A 0.47 0.47 0.0 0 0 243.00 363.92
  L 243.00 359.39
  A 0.42 0.41 89.4 0 0 242.58 358.97
  Q 236.47 359.03 229.87 359.05
  Q 223.26 359.10 217.16 359.11
  A 0.42 0.41 90.0 0 0 216.74 359.53
  L 216.79 364.06
  A 0.47 0.47 0.0 0 0 217.26 364.53
  L 226.21 364.43
  A 0.61 0.61 0.0 0 1 226.83 365.03
  L 227.10 390.38
  A 0.61 0.60 3.0 0 0 227.65 390.97
  Q 228.11 391.02 230.04 391.01
  Z
  M 270.12 391.76
  C 274.32 391.74 278.39 390.77 281.03 387.47
  C 282.22 385.97 283.39 381.68 283.42 380.04
  Q 283.56 373.41 283.24 359.35
  A 0.37 0.36 -0.0 0 0 282.87 358.99
  L 277.51 358.99
  A 0.35 0.35 0.0 0 0 277.16 359.34
  Q 277.08 372.78 277.08 379.30
  C 277.07 384.21 274.53 385.93 270.10 385.95
  C 265.67 385.97 263.11 384.28 263.06 379.36
  Q 262.99 372.85 262.78 359.41
  A 0.35 0.35 0.0 0 0 262.43 359.06
  L 257.07 359.11
  A 0.37 0.36 -0.5 0 0 256.70 359.47
  Q 256.52 373.54 256.72 380.17
  C 256.77 381.81 257.97 386.08 259.18 387.57
  C 261.85 390.85 265.93 391.78 270.12 391.76
  Z
  M 315.69 378.20
  Q 320.29 375.82 321.14 372.13
  C 321.99 368.45 321.49 362.37 317.18 361.11
  Q 311.61 359.48 311.34 359.37
  A 5.24 5.08 -33.4 0 0 309.44 359.01
  L 298.96 358.99
  A 0.62 0.62 0.0 0 0 298.34 359.61
  L 298.34 390.70
  A 0.29 0.29 0.0 0 0 298.63 390.99
  L 304.37 390.99
  A 0.31 0.31 0.0 0 0 304.68 390.68
  L 304.68 379.71
  A 0.60 0.60 0.0 0 1 305.33 379.11
  C 307.91 379.28 309.61 379.11 310.51 381.56
  Q 312.19 386.14 314.67 389.61
  A 4.11 4.10 72.1 0 0 318.00 391.32
  L 321.83 391.32
  A 0.85 0.85 0.0 0 0 322.55 390.01
  L 315.48 378.99
  A 0.55 0.55 0.0 0 1 315.69 378.20
  Z
  M 345.29 359.02
  A 0.49 0.49 0.0 0 0 344.83 359.34
  L 333.59 390.33
  A 0.49 0.49 0.0 0 0 334.05 390.99
  L 339.38 390.99
  A 0.49 0.49 0.0 0 0 339.84 390.67
  L 342.31 383.83
  A 0.49 0.49 0.0 0 1 342.77 383.51
  L 355.01 383.51
  A 0.49 0.49 0.0 0 1 355.47 383.82
  L 358.09 390.66
  A 0.49 0.49 0.0 0 0 358.55 390.97
  L 363.91 390.97
  A 0.49 0.49 0.0 0 0 364.37 390.30
  L 352.50 359.33
  A 0.49 0.49 0.0 0 0 352.04 359.02
  L 345.29 359.02
  Z"
/>
<path fill="#efeeea" d="
  M 243.62 171.48
  Q 243.94 116.44 243.78 104.97
  Q 243.71 99.92 245.14 98.19
  Q 247.46 95.36 251.70 96.28
  C 254.83 96.97 255.61 101.10 255.61 103.75
  Q 255.84 187.26 255.86 194.73
  A 0.54 0.54 0.0 0 0 256.80 195.09
  Q 266.06 184.82 269.81 180.13
  C 278.70 169.00 275.40 150.21 276.20 139.25
  Q 276.48 135.39 278.04 133.26
  C 279.65 131.07 283.35 130.86 285.81 132.30
  Q 288.83 134.06 288.84 138.73
  Q 288.87 150.44 288.59 159.26
  C 288.13 173.87 282.44 186.05 271.88 195.86
  C 264.97 202.28 258.37 209.25 256.59 217.81
  Q 255.71 222.02 255.76 226.29
  Q 255.83 232.59 255.83 234.77
  A 0.40 0.39 -34.3 0 0 256.59 234.91
  C 259.91 226.79 265.37 220.97 272.45 215.46
  Q 280.08 209.54 289.44 202.19
  C 296.70 196.48 302.58 188.28 304.80 179.12
  C 306.04 173.97 303.74 163.66 310.50 161.68
  Q 314.06 160.63 316.52 163.66
  C 317.73 165.15 317.44 166.18 317.54 167.93
  Q 318.81 189.30 304.36 205.12
  C 296.28 213.95 282.03 222.03 274.01 230.31
  Q 264.75 239.86 259.35 253.33
  C 257.71 257.44 255.55 264.72 252.31 265.89
  Q 246.43 268.00 244.12 262.05
  C 238.09 246.53 229.56 232.37 216.23 222.00
  Q 203.91 212.42 201.24 210.22
  Q 180.53 193.21 182.53 166.02
  A 2.73 2.66 -25.8 0 1 183.01 164.70
  Q 185.50 161.24 190.32 162.14
  C 193.46 162.73 194.37 166.74 194.46 169.94
  Q 194.62 176.32 195.34 178.97
  Q 198.19 189.49 203.55 195.46
  C 210.64 203.37 218.77 208.37 226.10 213.91
  Q 235.40 220.94 241.44 230.62
  C 242.37 232.12 242.67 234.39 243.42 235.28
  A 0.51 0.50 18.2 0 0 244.30 234.84
  Q 243.85 233.03 243.86 231.28
  Q 244.00 212.15 243.72 202.55
  Q 243.30 188.00 233.15 178.07
  C 221.92 167.07 212.68 158.37 211.12 143.69
  Q 210.39 136.82 210.68 128.74
  C 210.79 125.50 211.96 121.94 215.42 121.32
  C 218.95 120.69 222.88 123.50 222.73 127.24
  C 222.36 136.59 223.02 145.73 228.57 154.46
  C 232.68 160.92 238.33 165.67 243.27 171.60
  A 0.20 0.20 0.0 0 0 243.62 171.48
  Z"
/>
<path fill="#efeeea" d="
  M 292.67 285.83
  Q 296.37 282.71 298.18 279.53
  A 1.95 1.94 -75.1 0 1 299.87 278.54
  L 308.39 278.54
  A 0.49 0.48 -68.3 0 1 308.74 279.36
  Q 304.46 283.92 300.80 286.04
  Q 298.60 287.31 292.88 286.55
  A 0.41 0.41 0.0 0 1 292.67 285.83
  Z"
/>
<path fill="#efeeea" d="
  M 264.14 321.49
  L 249.38 321.49
  A 0.37 0.37 0.0 0 1 249.01 321.12
  L 249.01 313.49
  A 0.28 0.28 0.0 0 1 249.29 313.21
  L 273.04 313.21
  A 0.63 0.63 0.0 0 1 273.67 313.83
  Q 273.76 320.23 273.55 324.23
  Q 273.49 325.28 271.87 329.38
  A 5.36 5.24 -14.9 0 1 271.02 330.81
  Q 259.19 345.09 240.91 339.99
  Q 232.72 337.70 227.89 330.35
  C 220.43 318.98 223.68 302.74 234.31 294.89
  C 240.40 290.39 246.61 288.49 254.42 290.18
  Q 265.66 292.61 271.44 302.59
  A 0.93 0.93 0.0 0 1 270.84 303.97
  Q 267.19 304.78 265.03 306.89
  A 0.80 0.80 0.0 0 1 264.07 307.02
  Q 261.97 305.83 261.41 303.66
  A 1.41 1.39 -78.7 0 0 260.92 302.91
  Q 257.41 300.11 252.84 299.41
  Q 251.69 299.23 245.25 299.33
  A 2.83 2.81 -62.1 0 0 243.71 299.81
  Q 242.66 300.52 241.03 301.26
  C 237.46 302.87 235.07 307.02 234.27 310.75
  C 232.71 318.06 234.82 328.46 242.95 331.17
  C 251.10 333.88 262.19 331.72 264.82 322.40
  A 0.71 0.71 0.0 0 0 264.14 321.49
  Z"
/>
<path fill="#efeeea" d="
  M 187.81 291.01
  A 0.12 0.12 0.0 0 1 187.92 291.17
  L 170.32 339.69
  A 0.84 0.84 0.0 0 1 169.53 340.25
  L 160.09 340.25
  A 0.87 0.87 0.0 0 1 159.27 339.68
  L 141.32 291.24
  A 0.18 0.17 -9.3 0 1 141.49 291.01
  L 151.12 291.01
  A 0.37 0.36 79.5 0 1 151.46 291.25
  Q 156.79 305.81 162.68 320.85
  C 163.56 323.10 163.99 325.33 164.16 327.63
  A 0.83 0.82 -38.6 0 0 165.77 327.81
  L 168.71 318.46
  A 2.43 2.34 -36.8 0 0 168.81 317.85
  Q 168.86 316.33 169.10 315.58
  Q 171.06 309.61 177.49 291.27
  A 0.39 0.38 -80.3 0 1 177.85 291.01
  L 187.81 291.01
  Z"
/>
<path fill="#efeeea" d="
  M 209.84 291.44
  L 209.84 339.06
  A 1.37 1.37 0.0 0 1 208.65 340.42
  Q 206.28 340.75 204.04 340.89
  Q 202.73 340.97 202.09 340.41
  Q 201.55 339.93 200.84 340.04
  A 0.68 0.67 85.6 0 1 200.07 339.37
  L 200.07 291.34
  A 0.31 0.31 0.0 0 1 200.38 291.03
  L 209.43 291.03
  A 0.41 0.41 0.0 0 1 209.84 291.44
  Z"
/>
<path fill="#efeeea" d="
  M 298.57 291.05
  A 0.40 0.40 0.0 0 1 298.97 291.45
  L 298.89 339.08
  A 4.32 1.69 0.1 0 1 294.57 340.76
  L 293.53 340.76
  A 4.32 1.69 0.1 0 1 289.21 339.06
  L 289.29 291.43
  A 0.40 0.40 0.0 0 1 289.69 291.03
  L 298.57 291.05
  Z"
/>
<path fill="#efeeea" d="
  M 311.95 339.40
  L 329.33 291.47
  A 0.74 0.74 0.0 0 1 330.02 290.99
  L 340.73 290.99
  A 0.79 0.78 -10.1 0 1 341.47 291.50
  L 359.85 339.45
  A 0.74 0.74 0.0 0 1 359.16 340.45
  L 351.54 340.45
  A 1.51 1.51 0.0 0 1 350.13 339.48
  L 346.26 329.38
  A 0.98 0.97 79.5 0 0 345.35 328.75
  L 326.01 328.75
  A 0.63 0.62 -83.6 0 0 325.40 329.24
  Q 324.17 334.85 321.27 339.84
  A 0.90 0.90 0.0 0 1 320.49 340.29
  L 312.58 340.29
  A 0.67 0.66 9.8 0 1 311.95 339.40
  Z
  M 328.88 319.33
  A 0.56 0.56 0.0 0 0 329.41 320.07
  L 342.88 319.89
  A 0.56 0.56 0.0 0 0 343.40 319.13
  L 336.40 300.36
  A 0.56 0.56 0.0 0 0 335.35 300.38
  L 328.88 319.33
  Z"
/>
<path fill="#181818" d="
  M 328.88 319.33
  L 335.35 300.38
  A 0.56 0.56 0.0 0 1 336.40 300.36
  L 343.40 319.13
  A 0.56 0.56 0.0 0 1 342.88 319.89
  L 329.41 320.07
  A 0.56 0.56 0.0 0 1 328.88 319.33
  Z"
/>
<path fill="#efeeea" d="
  M 159.68 373.47
  L 159.68 377.98
  A 0.52 0.52 0.0 0 1 159.16 378.50
  L 148.52 378.50
  A 0.52 0.52 0.0 0 0 148.00 379.02
  L 148.00 390.49
  A 0.52 0.52 0.0 0 1 147.48 391.01
  L 142.54 391.01
  A 0.52 0.52 0.0 0 1 142.02 390.49
  L 142.02 359.50
  A 0.52 0.52 0.0 0 1 142.54 358.98
  L 161.33 358.98
  A 0.52 0.52 0.0 0 1 161.85 359.50
  L 161.85 363.65
  A 0.52 0.52 0.0 0 1 161.33 364.17
  L 148.54 364.17
  A 0.52 0.52 0.0 0 0 148.02 364.69
  L 148.02 372.43
  A 0.52 0.52 0.0 0 0 148.54 372.95
  L 159.16 372.95
  A 0.52 0.52 0.0 0 1 159.68 373.47
  Z"
/>
<path fill="#efeeea" d="
  M 190.01 385.93
  C 194.45 385.91 196.99 384.19 197.00 379.27
  Q 197.01 372.75 197.09 359.29
  A 0.35 0.35 0.0 0 1 197.44 358.94
  L 202.81 358.94
  A 0.37 0.36 -0.0 0 1 203.18 359.30
  Q 203.49 373.38 203.35 380.02
  C 203.32 381.66 202.15 385.95 200.95 387.45
  C 198.31 390.76 194.24 391.73 190.04 391.75
  C 185.84 391.77 181.75 390.84 179.08 387.55
  C 177.87 386.06 176.67 381.78 176.62 380.14
  Q 176.42 373.50 176.61 359.42
  A 0.37 0.36 -0.5 0 1 176.97 359.05
  L 182.34 359.01
  A 0.35 0.35 0.0 0 1 182.70 359.35
  Q 182.90 372.81 182.96 379.33
  C 183.01 384.25 185.58 385.95 190.01 385.93
  Z"
/>
<path fill="#efeeea" d="
  M 229.87 359.05
  Q 236.47 359.03 242.58 358.97
  A 0.42 0.41 89.4 0 1 243.00 359.39
  L 243.00 363.92
  A 0.47 0.47 0.0 0 1 242.53 364.39
  L 233.58 364.39
  A 0.61 0.61 0.0 0 0 232.97 365.00
  L 232.97 390.35
  A 0.61 0.60 -3.6 0 1 232.43 390.95
  Q 231.97 391.00 230.04 391.01
  Q 228.11 391.02 227.65 390.97
  A 0.61 0.60 3.0 0 1 227.10 390.38
  L 226.83 365.03
  A 0.61 0.61 0.0 0 0 226.21 364.43
  L 217.26 364.53
  A 0.47 0.47 0.0 0 1 216.79 364.06
  L 216.74 359.53
  A 0.42 0.41 90.0 0 1 217.16 359.11
  Q 223.26 359.10 229.87 359.05
  Z"
/>
<path fill="#efeeea" d="
  M 270.12 391.76
  C 265.93 391.78 261.85 390.85 259.18 387.57
  C 257.97 386.08 256.77 381.81 256.72 380.17
  Q 256.52 373.54 256.70 359.47
  A 0.37 0.36 -0.5 0 1 257.07 359.11
  L 262.43 359.06
  A 0.35 0.35 0.0 0 1 262.78 359.41
  Q 262.99 372.85 263.06 379.36
  C 263.11 384.28 265.67 385.97 270.10 385.95
  C 274.53 385.93 277.07 384.21 277.08 379.30
  Q 277.08 372.78 277.16 359.34
  A 0.35 0.35 0.0 0 1 277.51 358.99
  L 282.87 358.99
  A 0.37 0.36 -0.0 0 1 283.24 359.35
  Q 283.56 373.41 283.42 380.04
  C 283.39 381.68 282.22 385.97 281.03 387.47
  C 278.39 390.77 274.32 391.74 270.12 391.76
  Z"
/>
<path fill="#efeeea" d="
  M 315.48 378.99
  L 322.55 390.01
  A 0.85 0.85 0.0 0 1 321.83 391.32
  L 318.00 391.32
  A 4.11 4.10 72.1 0 1 314.67 389.61
  Q 312.19 386.14 310.51 381.56
  C 309.61 379.11 307.91 379.28 305.33 379.11
  A 0.60 0.60 0.0 0 0 304.68 379.71
  L 304.68 390.68
  A 0.31 0.31 0.0 0 1 304.37 390.99
  L 298.63 390.99
  A 0.29 0.29 0.0 0 1 298.34 390.70
  L 298.34 359.61
  A 0.62 0.62 0.0 0 1 298.96 358.99
  L 309.44 359.01
  A 5.24 5.08 -33.4 0 1 311.34 359.37
  Q 311.61 359.48 317.18 361.11
  C 321.49 362.37 321.99 368.45 321.14 372.13
  Q 320.29 375.82 315.69 378.20
  A 0.55 0.55 0.0 0 0 315.48 378.99
  Z
  M 304.87 364.80
  L 304.85 373.62
  A 0.34 0.34 0.0 0 0 305.19 373.96
  L 310.91 373.97
  A 4.74 4.53 0.1 0 0 315.66 369.45
  L 315.66 369.01
  A 4.74 4.53 0.1 0 0 310.93 364.47
  L 305.21 364.46
  A 0.34 0.34 0.0 0 0 304.87 364.80
  Z"
/>
<path fill="#efeeea" d="
  M 345.29 359.02
  L 352.04 359.02
  A 0.49 0.49 0.0 0 1 352.50 359.33
  L 364.37 390.30
  A 0.49 0.49 0.0 0 1 363.91 390.97
  L 358.55 390.97
  A 0.49 0.49 0.0 0 1 358.09 390.66
  L 355.47 383.82
  A 0.49 0.49 0.0 0 0 355.01 383.51
  L 342.77 383.51
  A 0.49 0.49 0.0 0 0 342.31 383.83
  L 339.84 390.67
  A 0.49 0.49 0.0 0 1 339.38 390.99
  L 334.05 390.99
  A 0.49 0.49 0.0 0 1 333.59 390.33
  L 344.83 359.34
  A 0.49 0.49 0.0 0 1 345.29 359.02
  Z
  M 344.26 377.10
  A 0.64 0.64 0.0 0 0 344.86 377.96
  L 353.21 378.06
  A 0.64 0.64 0.0 0 0 353.82 377.22
  L 349.79 365.48
  A 0.64 0.64 0.0 0 0 348.58 365.46
  L 344.26 377.10
  Z"
/>
<path fill="#181818" d="
  M 304.87 364.80
  A 0.34 0.34 0.0 0 1 305.21 364.46
  L 310.93 364.47
  A 4.74 4.53 0.1 0 1 315.66 369.01
  L 315.66 369.45
  A 4.74 4.53 0.1 0 1 310.91 373.97
  L 305.19 373.96
  A 0.34 0.34 0.0 0 1 304.85 373.62
  L 304.87 364.80
  Z"
/>
<path fill="#181818" d="
  M 344.26 377.10
  L 348.58 365.46
  A 0.64 0.64 0.0 0 1 349.79 365.48
  L 353.82 377.22
  A 0.64 0.64 0.0 0 1 353.21 378.06
  L 344.86 377.96
  A 0.64 0.64 0.0 0 1 344.26 377.10
  Z"
/>
</svg>
